<?xml version="1.0" encoding="UTF-8" standalone="no"?>
<svg
   xmlns:dc="http://purl.org/dc/elements/1.1/"
   xmlns:cc="http://creativecommons.org/ns#"
   xmlns:rdf="http://www.w3.org/1999/02/22-rdf-syntax-ns#"
   xmlns:svg="http://www.w3.org/2000/svg"
   xmlns="http://www.w3.org/2000/svg"
   viewBox="0 0 457.33334 238.66667"
   height="238.66667"
   width="457.33334"
   xml:space="preserve"
   id="svg2"
   version="1.1"><metadata
     id="metadata8"><rdf:RDF><cc:Work
         rdf:about=""><dc:format>image/svg+xml</dc:format><dc:type
           rdf:resource="http://purl.org/dc/dcmitype/StillImage" /></cc:Work></rdf:RDF></metadata><defs
     id="defs6" /><g
     transform="matrix(1.3333333,0,0,-1.3333333,0,238.66667)"
     id="g10"><g
       transform="scale(0.1)"
       id="g12"><path
         id="path14"
         style="fill:#4ab3e1;fill-opacity:1;fill-rule:evenodd;stroke:none"
         d="m 2308.67,976.988 c -32.65,-4.648 -66.83,-8.16 -102.5,-10.508 -158.67,-10 -334.65,5.668 -528.01,47.04 -214.33,49.33 -395.15,117.81 -542.5,205.46 v 324.54 h 1070.51 v -512.04 c 35.67,2.35 69.85,5.86 102.5,10.51 v 604.03 H 1033.16 V 1287.5 c -141.988,107.34 -204.332,214.18 -186.988,320.51 21.019,80.31 88.008,140.97 201.018,181.99 -89.338,-17.34 -162.03,-44.18 -218.01,-80.51 -55.66,-36.33 -90,-80.97 -103.008,-133.98 -13.981,-73.01 13.168,-148.01 81.488,-225 69.02,-76.68 168.512,-147.66 298.51,-213.01 130.35,-65.66 281.02,-117.85 451.99,-156.48 121.68,-26.68 237.66,-42.7 348.01,-48.008 110,-5 210,-0.512 300,13.468 36.68,6.02 70.82,13.36 102.5,22.04 18.67,5.308 36.49,10.968 53.52,16.992 -17.03,-3.364 -34.85,-6.172 -53.52,-8.524" /><path
         id="path16"
         style="fill:#234c7a;fill-opacity:1;fill-rule:evenodd;stroke:none"
         d="m 2458.67,1423.01 c 97.66,-70 145.51,-146.68 143.52,-230 -6.02,-74.03 -52.7,-138.67 -140,-194.03 -86.68,-55 -201.68,-96.32 -345,-123.98 -143.36,-27.34 -302.5,-36.328 -477.5,-26.988 -132.7,8.008 -255.86,25.816 -369.53,53.468 -113.64,28.008 -212.5,63.168 -296.488,105.51 63.008,-45.31 141.678,-85.15 236.018,-119.49 93.98,-34.34 199.49,-61.02 316.48,-80 l -17.5,-51.02 h -62.5 l 15,59.54 -28.01,-59.54 h -74.49 l 14.49,59.54 -27.5,-59.54 h -70 c 1.68,8.008 3.01,15.508 4.03,22.5 2.3,11.372 3.83,20.2 4.49,26.532 0.98,6.636 1.48,10.148 1.48,10.508 0,-0.36 -1.64,-3.36 -5,-9.032 -3,-5.66 -7.34,-13.468 -13,-23.468 -4.65,-8.36 -9.5,-17.348 -14.5,-27.04 h -102.5 L 1164.18,870 1036.68,647.5 998.16,580.512 h 1332 l -23.48,68.008 -59.02,167.5 c 136.68,27.96 246.17,69.14 328.51,123.468 82.66,54.34 126.84,117.502 132.5,189.492 2.35,54.69 -18.51,107.04 -62.5,157.04 -44.33,50.31 -106.83,95.97 -187.5,136.99 M 1634.69,710 h 43.98 l -10,-26.988 h -43.51 l 9.53,26.988 m -59.03,-26.988 h -43.98 l 10,26.988 h 43.48 l -9.5,-26.988 m 296.02,96.988 8.01,-23.52 h -42.5 l 8.47,23.52 h 26.02 m 84.49,-23.52 h -26.01 l 8.51,24.54 c 6.68,0.308 13.32,0.66 20,0.968 l 8.52,-25.508 h -11.02 m -168.51,0 h -43.48 l 8.98,27.04 c 14.69,-1.02 29.18,-1.68 43.52,-2.04 l -9.02,-25 m -92.97,0 h -43.52 l 11.49,34.032 c 14.02,-1.684 28.16,-3.012 42.5,-4.032 l -10.47,-30 M 1727.66,710 h 44.02 l -10,-26.988 h -43.52 l 9.5,26.988 m 93,0 h 44.03 l -10,-26.988 h -43.52 l 9.49,26.988 m 125,0 h 38.01 l 8.99,-26.988 h -37.97 L 1945.66,710 m 87,0 h 38.51 l 8.99,-26.988 h -37.97 L 2032.66,710 m -15.98,46.48 -10,28.008 c 12.66,0.672 25.16,1.532 37.5,2.5 l 10.51,-30.508 h -38.01 m 75,35 c 18.01,2.04 35.82,4.34 53.48,7.04 l 14.53,-42.04 h -55.51 l -12.5,35 m -518.52,9.032 c 14.03,-1.684 28.01,-3.524 42,-5.512 l -13.48,-38.52 h -44.02 l 15.5,44.032 M 1492.19,710 l -9.53,-26.988 h -53.99 l 6.49,26.988 h 57.03 m -81.02,0 -12.5,-26.988 h -57.5 l 6.49,26.988 h 63.51 m -100,-26.988 h -51.01 c 1.36,5.308 2.69,10.66 4.02,15.968 0.31,3.68 0.98,7.352 1.99,11.02 h 58.01 l -13.01,-26.988 M 1144.69,710 h 85 c -4.34,-9.34 -8.67,-18.32 -13.01,-26.988 h -75 l 3.01,26.988 m 985,-26.988 -9.53,26.988 h 56.01 l 9.49,-26.988 h -55.97" /><path
         id="path18"
         style="fill:#4ab3e1;fill-opacity:1;fill-rule:evenodd;stroke:none"
         d="m 1869.49,1361.13 v 24.65 h 70.12 v -24.65 h -18.67 l -70,-191.4 h -39.18 l -68.99,191.4 h -19.1 v 24.65 h 70.12 v -24.65 H 1775 l 55.43,-166.6 59.41,166.6 z m 85.63,-49.02 5.86,28.36 h 35.9 l 8.98,45.31 h 27.23 l -8.83,-45.31 h 50 l 8.98,45.31 h 27.23 l -8.83,-45.31 h 32.03 l -5.55,-28.36 h -32.07 l -11.52,-59.14 h 34.06 l -5.27,-27.77 h -34.22 l -10.66,-55.47 h -27.54 l 10.86,55.47 h -50.04 l -10.67,-55.47 h -28.08 l 10.98,55.47 h -34.34 l 5.82,27.77 h 34.06 l 11.68,59.14 z m 63.55,0 -11.52,-59.14 h 50 l 11.56,59.14 z" /><path
         id="path20"
         style="fill:#254e7c;fill-opacity:1;fill-rule:nonzero;stroke:none"
         d="m 119.922,237.66 h 57.656 V 217.34 H 162.27 L 104.609,60 H 72.4219 L 15.6992,217.34 H -0.078125 v 20.32 H 57.7305 V 217.34 H 42.2695 L 87.7305,80.4688 136.641,217.34 h -16.719 z m 196.719,0 h 57.66 V 217.5 H 357.422 V 80.1602 h 16.879 V 60 h -57.66 v 20.1602 h 17.808 V 144.059 H 231.641 V 80.1602 h 17.808 V 60 h -57.648 v 20.1602 h 16.871 V 217.5 h -16.871 v 20.16 h 57.648 V 217.5 h -17.808 v -53.75 h 102.808 v 53.75 h -17.808 z" /><path
         id="path22"
         style="fill:#254e7c;fill-opacity:1;fill-rule:nonzero;stroke:none"
         d="m 474.301,71.25 c -4.61,-4.3008 -9.692,-7.8086 -15.321,-10.6289 -5.621,-2.6914 -11.992,-4.0625 -19.058,-4.0625 -5.942,0 -11.402,0.9414 -16.402,2.8203 -4.93,1.8711 -9.18,4.4102 -12.821,7.6524 -3.551,3.3203 -6.32,7.1093 -8.277,11.4101 -1.992,4.2578 -2.973,8.8281 -2.973,13.75 0,5.0781 0.711,9.6096 2.192,13.5896 1.558,4.059 3.589,7.539 6.089,10.469 2.579,2.891 5.551,5.352 8.911,7.34 3.437,1.961 6.949,3.519 10.629,4.691 3.75,1.25 7.531,2.11 11.402,2.66 3.828,0.508 7.539,0.778 11.098,0.778 5.621,0 10.351,-0.239 14.21,-0.629 3.829,-0.309 7.348,-0.781 10.469,-1.399 v 10 c 0,4.258 -0.621,7.969 -1.871,11.09 -1.25,3.199 -3.047,5.86 -5.308,7.969 -2.192,2.07 -4.93,3.59 -8.129,4.531 -3.121,1.02 -6.641,1.559 -10.469,1.559 -3.75,0 -7.301,-0.27 -10.621,-0.781 -3.36,-0.43 -6.492,-1.047 -9.379,-1.868 -2.934,-0.863 -5.621,-1.8 -8.121,-2.812 -2.5,-1.059 -4.61,-2.188 -6.25,-3.438 l -7.192,15.149 c 2.891,1.879 6.09,3.601 9.532,5.16 3.437,1.641 7.031,3.051 10.781,4.219 3.828,1.133 7.699,2.031 11.558,2.652 3.95,0.629 7.86,0.938 11.719,0.938 7.071,0 13.442,-0.86 19.071,-2.5 5.621,-1.68 10.351,-4.289 14.21,-7.809 3.95,-3.441 6.961,-7.93 9.071,-13.441 2.07,-5.43 3.121,-11.868 3.121,-19.368 L 496.02,80.1602 h 13.589 V 60 h -35.308 z m -29.531,3.5898 c 2.89,0 5.781,0.3594 8.589,1.1016 2.891,0.6992 5.661,1.6367 8.282,2.8086 2.578,1.25 5,2.6602 7.187,4.2188 2.192,1.6406 3.981,3.3203 5.473,5 l 0.148,27.5002 h -25.308 c -4.301,0 -8.2,-0.469 -11.719,-1.41 -3.442,-0.938 -6.402,-2.34 -8.902,-4.219 -2.5,-1.789 -4.5,-4.02 -5.942,-6.719 -1.367,-2.609 -2.027,-5.621 -2.027,-9.0624 0,-3.1172 0.539,-5.8984 1.719,-8.2773 1.128,-2.4219 2.73,-4.4532 4.839,-6.0899 2.192,-1.5703 4.731,-2.7812 7.661,-3.6016 3,-0.8593 6.32,-1.25 10,-1.25 z" /><path
         id="path24"
         style="fill:#254e7c;fill-opacity:1;fill-rule:nonzero;stroke:none"
         d="m 605.551,71.25 c -4.61,-4.3008 -9.692,-7.8086 -15.321,-10.6289 -5.621,-2.6914 -11.992,-4.0625 -19.058,-4.0625 -5.942,0 -11.402,0.9414 -16.402,2.8203 -4.93,1.8711 -9.18,4.4102 -12.821,7.6524 -3.551,3.3203 -6.328,7.1093 -8.277,11.4101 -1.992,4.2578 -2.973,8.8281 -2.973,13.75 0,5.0781 0.711,9.6096 2.192,13.5896 1.558,4.059 3.589,7.539 6.089,10.469 2.579,2.891 5.551,5.352 8.911,7.34 3.437,1.961 6.949,3.519 10.629,4.691 3.75,1.25 7.531,2.11 11.402,2.66 3.828,0.508 7.539,0.778 11.098,0.778 5.621,0 10.351,-0.239 14.21,-0.629 3.829,-0.309 7.348,-0.781 10.469,-1.399 v 10 c 0,4.258 -0.621,7.969 -1.871,11.09 -1.25,3.199 -3.047,5.86 -5.308,7.969 -2.192,2.07 -4.93,3.59 -8.129,4.531 -3.121,1.02 -6.641,1.559 -10.469,1.559 -3.75,0 -7.301,-0.27 -10.621,-0.781 -3.36,-0.43 -6.492,-1.047 -9.379,-1.868 -2.934,-0.863 -5.621,-1.8 -8.121,-2.812 -2.5,-1.059 -4.61,-2.188 -6.25,-3.438 l -7.192,15.149 c 2.891,1.879 6.09,3.601 9.532,5.16 3.437,1.641 7.031,3.051 10.781,4.219 3.828,1.133 7.699,2.031 11.558,2.652 3.95,0.629 7.86,0.938 11.719,0.938 7.071,0 13.442,-0.86 19.071,-2.5 5.621,-1.68 10.351,-4.289 14.21,-7.809 3.95,-3.441 6.961,-7.93 9.071,-13.441 2.07,-5.43 3.121,-11.868 3.121,-19.368 L 627.27,80.1602 h 13.589 V 60 h -35.308 z m -29.531,3.5898 c 2.89,0 5.781,0.3594 8.589,1.1016 2.891,0.6992 5.661,1.6367 8.282,2.8086 2.578,1.25 5,2.6602 7.187,4.2188 2.192,1.6406 3.981,3.3203 5.473,5 l 0.148,27.5002 h -25.308 c -4.301,0 -8.2,-0.469 -11.719,-1.41 -3.442,-0.938 -6.402,-2.34 -8.902,-4.219 -2.5,-1.789 -4.5,-4.02 -5.942,-6.719 -1.367,-2.609 -2.027,-5.621 -2.027,-9.0624 0,-3.1172 0.539,-5.8984 1.719,-8.2773 1.128,-2.4219 2.73,-4.4532 4.839,-6.0899 2.192,-1.5703 4.731,-2.7812 7.661,-3.6016 3,-0.8593 6.32,-1.25 10,-1.25 z" /><path
         id="path26"
         style="fill:#254e7c;fill-opacity:1;fill-rule:nonzero;stroke:none"
         d="m 761.48,189.379 c 0,6.871 -1.25,12.031 -3.75,15.461 -2.5,3.441 -5.269,6.019 -8.281,7.82 -3.039,1.871 -6.359,3.281 -10,4.219 -3.551,1.012 -7.109,1.562 -10.621,1.562 -5.937,0 -11.168,-0.711 -15.629,-2.031 -4.488,-1.371 -8.199,-3.25 -11.09,-5.629 -2.929,-2.301 -5.121,-5 -6.558,-8.121 -1.492,-3.129 -2.192,-6.41 -2.192,-9.851 0,-5.231 0.86,-9.368 2.661,-12.5 1.871,-3.118 4.21,-5.7 7.031,-7.649 2.808,-1.879 5.859,-3.398 9.219,-4.539 3.429,-1.051 6.71,-2.141 9.839,-3.281 l 23.75,-7.649 c 7.071,-2.312 13.321,-4.921 18.75,-7.812 5.391,-2.82 9.922,-6.219 13.59,-10.16 3.75,-3.989 6.571,-8.559 8.442,-13.75 1.879,-5.117 2.808,-11.059 2.808,-17.809 0,-7.43 -1.519,-14.2186 -4.527,-20.4686 -2.934,-6.25 -7.113,-11.6797 -12.5,-16.25 C 766.988,66.3281 760.551,62.6992 753.051,60 c -7.43,-2.5781 -15.59,-3.9102 -24.531,-3.9102 -9.071,0 -16.879,1.0586 -23.442,3.129 -6.488,2.0703 -11.957,4.8398 -16.406,8.2812 -4.371,3.5195 -7.934,7.5 -10.621,11.8789 -2.621,4.4492 -4.653,9.0625 -6.102,13.7422 h -8.898 v 20.1599 h 29.527 c 0,-8.672 0.863,-14.8005 2.652,-18.4412 1.879,-3.5507 4.418,-6.5195 7.661,-8.8984 3.32,-2.4219 7.23,-4.2226 11.718,-5.4726 4.571,-1.168 9.61,-1.7188 15.161,-1.7188 5.308,0 10.07,0.6289 14.371,1.8711 4.257,1.2578 7.847,3.0508 10.781,5.4687 3.008,2.3907 5.308,5.2383 6.879,8.6016 1.64,3.4297 2.5,7.2576 2.5,11.5586 0,4.77 -1.02,8.828 -2.973,12.191 -1.988,3.321 -4.527,6.129 -7.656,8.438 -3.121,2.383 -6.563,4.293 -10.313,5.781 -3.668,1.442 -7.187,2.731 -10.629,3.899 l -25.781,7.191 c -5.621,1.762 -10.777,3.949 -15.469,6.559 -4.601,2.703 -8.55,5.941 -11.871,9.691 -3.359,3.828 -5.898,8.32 -7.66,13.441 -1.789,5.188 -2.648,11.129 -2.648,17.809 0,6.762 1.289,13.129 3.898,19.059 2.699,5.941 6.602,11.14 11.723,15.632 5.199,4.45 11.488,7.969 18.906,10.469 7.5,2.57 16.012,3.899 25.621,3.899 6.332,0 12.192,-0.778 17.5,-2.34 5.391,-1.489 10.242,-3.559 14.531,-6.25 4.379,-2.739 8.211,-5.938 11.571,-9.688 3.32,-3.75 6.129,-7.929 8.429,-12.5 h 8.75 v -20.152 z" /><path
         id="path28"
         style="fill:#254e7c;fill-opacity:1;fill-rule:nonzero;stroke:none"
         d="m 809.141,242.34 h 38.437 v -74.219 h 0.621 c 2.192,2.188 4.692,4.219 7.5,6.098 2.891,1.871 5.942,3.48 9.071,4.84 3.121,1.453 6.32,2.543 9.679,3.281 3.321,0.82 6.879,1.25 10.629,1.25 6.442,0 12.262,-0.891 17.5,-2.649 5.192,-1.8 9.613,-4.531 13.281,-8.281 3.75,-3.68 6.602,-8.359 8.59,-14.07 1.961,-5.738 2.973,-12.5 2.973,-20.309 V 80.1602 h 18.277 V 60 h -57.648 v 20.1602 h 16.719 v 55.4608 c 0,9.258 -2.43,16.289 -7.192,21.098 -4.687,4.761 -11.488,7.191 -20.308,7.191 -5,0 -10.122,-1.211 -15.321,-3.601 -5.109,-2.297 -9.918,-5.27 -14.371,-8.899 V 80.1602 h 17.5 V 60 h -57.656 v 20.1602 h 18.277 V 222.191 h -16.558 z" /><path
         id="path30"
         style="fill:#254e7c;fill-opacity:1;fill-rule:nonzero;stroke:none"
         d="m 1060.23,80.1602 h 16.25 V 218.441 h -40.46 v -27.66 h -24.07 v 46.879 h 158.44 v -46.879 h -24.06 v 27.66 h -46.88 V 80.1602 h 18.28 V 60 h -57.5 z" /><path
         id="path32"
         style="fill:#254e7c;fill-opacity:1;fill-rule:nonzero;stroke:none"
         d="m 1179.38,117.969 c 0,-3.438 0.23,-6.641 0.78,-9.528 0.5,-2.82 1.25,-5.55 2.18,-8.132 2.89,-7.809 7.54,-13.7074 13.91,-17.6488 6.33,-3.9883 13.52,-5.9414 21.56,-5.9414 6.33,0 12.5,0.8593 18.44,2.6601 6.02,1.75 12.34,4.5313 18.91,8.2813 l 8.75,-14.8516 c -8.05,-5.5391 -16.06,-9.6484 -24.07,-12.3398 -8.04,-2.5782 -16.36,-3.9102 -25,-3.9102 -8.24,0 -15.86,1.3711 -22.81,4.0625 -6.99,2.8203 -13.05,6.8789 -18.12,12.1875 -5,5.3906 -8.99,12.1133 -11.88,20.1602 -2.81,8.1212 -4.22,17.5432 -4.22,28.2812 0,8.629 1.17,16.801 3.6,24.531 2.5,7.699 6.13,14.418 10.93,20.16 4.77,5.7 10.71,10.231 17.82,13.59 7.07,3.321 15.35,5 24.84,5 9.14,0 16.8,-1.41 22.97,-4.222 6.13,-2.731 11.13,-6.36 15,-10.93 3.83,-4.609 6.76,-9.809 8.75,-15.629 1.95,-5.859 3.36,-11.84 4.22,-17.969 0.31,-2.929 0.51,-5.941 0.62,-9.062 0.2,-3.047 0.32,-5.938 0.32,-8.75 z m 34.06,48.281 c -5,0 -9.46,-0.738 -13.28,-2.191 -3.75,-1.36 -7,-3.399 -9.69,-6.09 -2.62,-2.739 -4.77,-6.059 -6.41,-10 -1.56,-3.867 -2.73,-8.239 -3.44,-13.129 h 62.82 c -0.32,4.57 -1.06,8.75 -2.19,12.5 -1.05,3.832 -2.77,7.191 -5.16,10 -2.3,2.82 -5.31,5 -9.06,6.57 -3.67,1.559 -8.2,2.34 -13.59,2.34 z" /><path
         id="path34"
         style="fill:#254e7c;fill-opacity:1;fill-rule:nonzero;stroke:none"
         d="m 1384.45,149.059 c -3.24,5.82 -7.42,10.082 -12.5,12.82 -5,2.812 -10.86,4.211 -17.5,4.211 -5.11,0 -9.92,-1.09 -14.37,-3.281 -4.38,-2.11 -8.24,-5.11 -11.56,-9.059 -3.36,-3.871 -6.02,-8.59 -7.97,-14.219 -1.88,-5.551 -2.82,-11.722 -2.82,-18.59 0,-6.8 0.94,-12.929 2.82,-18.441 1.95,-5.4297 4.61,-10.0781 7.97,-13.9102 3.43,-3.8593 7.34,-6.8281 11.71,-8.8984 4.38,-2.1133 9.11,-3.1328 14.22,-3.1328 7.5,0 13.99,1.8008 19.53,5.4727 5.63,3.6289 10.04,8.9492 13.29,15.9375 l 18.12,-8.9102 c -2.42,-5 -5.31,-9.4883 -8.75,-13.4375 -3.44,-3.9805 -7.34,-7.3398 -11.72,-10.1523 -4.3,-2.8086 -9.02,-5 -14.22,-6.5586 -5.23,-1.5704 -10.7,-2.3516 -16.4,-2.3516 -8.44,0 -16.25,1.5625 -23.44,4.6914 -7.19,3.1992 -13.4,7.6992 -18.59,13.4414 -5.12,5.6992 -9.15,12.5 -12.04,20.3086 -2.93,7.891 -4.37,16.559 -4.37,25.941 0,9.368 1.48,18.008 4.53,25.938 3.13,7.891 7.34,14.68 12.66,20.312 5.31,5.618 11.48,10.039 18.59,13.278 7.07,3.203 14.69,4.84 22.81,4.84 7.7,0 14.93,-1.36 21.72,-4.059 6.88,-2.621 12.85,-6.641 17.97,-12.031 h 12.34 v -20.16 z" /><path
         id="path36"
         style="fill:#254e7c;fill-opacity:1;fill-rule:nonzero;stroke:none"
         d="m 1429.77,242.34 h 38.43 v -74.219 h 0.63 c 2.19,2.188 4.69,4.219 7.5,6.098 2.89,1.871 5.94,3.48 9.06,4.84 3.13,1.453 6.33,2.543 9.69,3.281 3.32,0.82 6.87,1.25 10.62,1.25 6.45,0 12.27,-0.891 17.5,-2.649 5.2,-1.8 9.61,-4.531 13.28,-8.281 3.75,-3.68 6.61,-8.359 8.6,-14.07 1.95,-5.738 2.97,-12.5 2.97,-20.309 V 80.1602 h 18.28 V 60 h -57.66 v 20.1602 h 16.72 v 55.4608 c 0,9.258 -2.42,16.289 -7.19,21.098 -4.68,4.761 -11.48,7.191 -20.31,7.191 -5,0 -10.12,-1.211 -15.31,-3.601 -5.12,-2.297 -9.92,-5.27 -14.38,-8.899 V 80.1602 h 17.5 V 60 h -57.65 v 20.1602 h 18.28 V 222.191 h -16.56 z" /><path
         id="path38"
         style="fill:#254e7c;fill-opacity:1;fill-rule:nonzero;stroke:none"
         d="m 1666.95,80.1602 h 17.03 v 55.4608 c 0,9.258 -2.42,16.289 -7.18,21.098 -4.69,4.761 -11.41,7.191 -20.16,7.191 -5.12,0 -10.27,-1.211 -15.47,-3.601 -5.12,-2.418 -9.96,-5.43 -14.53,-9.059 V 80.1602 h 17.03 V 60 h -56.72 v 20.1602 h 16.88 V 161.25 h -16.88 v 20.16 h 38.75 v -14.219 h 0.16 c 2.58,2.188 5.35,4.258 8.28,6.25 2.89,2.071 5.98,3.829 9.22,5.309 3.2,1.559 6.56,2.73 10,3.59 3.44,0.82 7.07,1.25 10.94,1.25 6.44,0 12.26,-0.891 17.5,-2.649 5.31,-1.8 9.76,-4.531 13.43,-8.281 3.64,-3.68 6.45,-8.359 8.44,-14.07 2.07,-5.738 3.13,-12.5 3.13,-20.309 V 80.1602 h 16.87 V 60 h -56.72 z" /><path
         id="path40"
         style="fill:#254e7c;fill-opacity:1;fill-rule:nonzero;stroke:none"
         d="m 1745.7,120.781 c 0,9.571 1.49,18.278 4.53,26.098 3.01,7.891 7.23,14.68 12.66,20.312 5.39,5.7 11.8,10.079 19.22,13.118 7.38,3.132 15.55,4.691 24.53,4.691 8.95,0 17.11,-1.559 24.53,-4.691 7.5,-3.039 13.91,-7.34 19.22,-12.969 5.31,-5.539 9.41,-12.262 12.34,-20.149 3.01,-7.929 4.54,-16.679 4.54,-26.25 0,-9.492 -1.53,-18.211 -4.54,-26.1012 -2.93,-7.9296 -7.03,-14.7617 -12.34,-20.4609 -5.31,-5.6289 -11.72,-10.0781 -19.22,-13.2891 -7.42,-3.121 -15.58,-4.6796 -24.53,-4.6796 -9.18,0 -17.5,1.5586 -25,4.6796 -7.42,3.129 -13.75,7.5 -19.06,13.129 -5.31,5.7031 -9.49,12.5 -12.5,20.3125 -2.93,7.8907 -4.38,16.6407 -4.38,26.2497 z m 22.97,0 c 0,-6.992 0.98,-13.281 2.97,-18.902 2.07,-5.629 4.84,-10.4298 8.28,-14.379 3.44,-3.9805 7.42,-7.0312 12.03,-9.2187 4.57,-2.1094 9.46,-3.1211 14.69,-3.1211 5.31,0 10.31,1.0117 15,3.1211 4.69,2.0703 8.75,5.0781 12.19,9.0585 3.44,3.9493 6.09,8.75 7.97,14.3792 1.95,5.621 2.97,11.953 2.97,19.062 0,7.27 -1.02,13.789 -2.97,19.528 -1.88,5.711 -4.53,10.472 -7.97,14.222 -3.44,3.828 -7.5,6.758 -12.19,8.75 -4.69,1.949 -9.69,2.969 -15,2.969 -5.23,0 -10.12,-1.02 -14.69,-2.969 -4.61,-1.992 -8.59,-4.922 -12.03,-8.75 -3.44,-3.75 -6.21,-8.511 -8.28,-14.222 -1.99,-5.739 -2.97,-12.258 -2.97,-19.528 z" /><path
         id="path42"
         style="fill:#254e7c;fill-opacity:1;fill-rule:nonzero;stroke:none"
         d="m 1889.77,242.34 h 39.37 V 80.1602 h 18.28 V 60 h -57.65 v 20.1602 h 17.65 V 222.191 h -17.65 z" /><path
         id="path44"
         style="fill:#254e7c;fill-opacity:1;fill-rule:nonzero;stroke:none"
         d="m 1967.42,120.781 c 0,9.571 1.49,18.278 4.53,26.098 3.01,7.891 7.23,14.68 12.66,20.312 5.39,5.7 11.8,10.079 19.22,13.118 7.38,3.132 15.55,4.691 24.53,4.691 8.94,0 17.11,-1.559 24.53,-4.691 7.5,-3.039 13.91,-7.34 19.22,-12.969 5.31,-5.539 9.41,-12.262 12.34,-20.149 3.01,-7.929 4.53,-16.679 4.53,-26.25 0,-9.492 -1.52,-18.211 -4.53,-26.1012 -2.93,-7.9296 -7.03,-14.7617 -12.34,-20.4609 -5.31,-5.6289 -11.72,-10.0781 -19.22,-13.2891 -7.42,-3.121 -15.59,-4.6796 -24.53,-4.6796 -9.18,0 -17.5,1.5586 -25,4.6796 -7.42,3.129 -13.75,7.5 -19.06,13.129 -5.32,5.7031 -9.5,12.5 -12.5,20.3125 -2.93,7.8907 -4.38,16.6407 -4.38,26.2497 z m 22.97,0 c 0,-6.992 0.98,-13.281 2.97,-18.902 2.07,-5.629 4.84,-10.4298 8.28,-14.379 3.44,-3.9805 7.42,-7.0312 12.03,-9.2187 4.57,-2.1094 9.45,-3.1211 14.69,-3.1211 5.31,0 10.31,1.0117 15,3.1211 4.69,2.0703 8.75,5.0781 12.19,9.0585 3.43,3.9493 6.09,8.75 7.97,14.3792 1.95,5.621 2.96,11.953 2.96,19.062 0,7.27 -1.01,13.789 -2.96,19.528 -1.88,5.711 -4.54,10.472 -7.97,14.222 -3.44,3.828 -7.5,6.758 -12.19,8.75 -4.69,1.949 -9.69,2.969 -15,2.969 -5.24,0 -10.12,-1.02 -14.69,-2.969 -4.61,-1.992 -8.59,-4.922 -12.03,-8.75 -3.44,-3.75 -6.21,-8.511 -8.28,-14.222 -1.99,-5.739 -2.97,-12.258 -2.97,-19.528 z" /><path
         id="path46"
         style="fill:#254e7c;fill-opacity:1;fill-rule:nonzero;stroke:none"
         d="m 2201.33,70.6211 c -4.06,-4.1719 -8.75,-7.4609 -14.06,-9.8398 -5.24,-2.2618 -11.18,-3.4415 -17.82,-3.4415 -8.24,0 -15.9,1.4102 -22.97,4.2188 -7.1,2.8906 -13.24,7.0703 -18.43,12.5 -5.24,5.5117 -9.3,12.2695 -12.19,20.3203 -2.93,8.0001 -4.38,17.1801 -4.38,27.5001 0,9.371 1.41,17.891 4.22,25.621 2.82,7.699 6.76,14.262 11.88,19.691 5.19,5.387 11.44,9.61 18.75,12.649 7.26,3.012 15.35,4.539 24.22,4.539 6.13,0 11.6,-0.707 16.4,-2.039 4.89,-1.36 9.69,-3.75 14.38,-7.18 v 6.25 h 21.72 V 64.8398 c 0,-19.25 -4.61,-33.789 -13.75,-43.5898 -9.07,-9.8789 -23.21,-14.83984 -42.35,-14.83984 -4.29,0 -8.71,0.30859 -13.28,0.92968 -4.61,0.62891 -9.14,1.64063 -13.59,2.96876 -4.49,1.3711 -8.87,3.1328 -13.13,5.3125 -4.29,2.1094 -8.24,4.6484 -11.87,7.6602 l 11.72,17.6601 c 2.38,-1.9609 5.08,-3.793 8.12,-5.4726 3.01,-1.7579 6.25,-3.1993 9.69,-4.379 3.44,-1.25 6.95,-2.2187 10.62,-2.9687 3.64,-0.6992 7.27,-1.0898 10.94,-1.0898 6.02,0 11.25,0.6289 15.63,1.8789 4.45,1.25 8.12,3.5117 10.93,6.7109 2.89,3.1289 5.04,7.4297 6.41,12.8203 1.45,5.3086 2.19,12.1094 2.19,20.4688 z m -29.06,5.6289 c 3.51,0 6.75,0.3516 9.68,1.0898 3.01,0.711 5.71,1.6407 8.13,2.8204 2.5,1.1289 4.61,2.4179 6.4,3.8984 1.88,1.4531 3.48,3.0117 4.85,4.6914 v 66.41 c -4.06,3.512 -8.71,6.09 -13.91,7.649 -5.12,1.57 -10.43,2.351 -15.94,2.351 -5.11,0 -9.96,-1.019 -14.53,-2.969 -4.49,-1.882 -8.43,-4.652 -11.87,-8.281 -3.44,-3.68 -6.17,-8.129 -8.13,-13.441 -1.87,-5.309 -2.81,-11.41 -2.81,-18.278 0,-7.5 0.94,-14.14 2.81,-19.851 1.88,-5.7384 4.46,-10.5392 7.82,-14.3712 3.32,-3.8672 7.34,-6.7969 12.03,-8.75 4.68,-1.9883 9.84,-2.9688 15.47,-2.9688 z" /><path
         id="path48"
         style="fill:#254e7c;fill-opacity:1;fill-rule:nonzero;stroke:none"
         d="m 2252.11,181.41 h 39.69 V 80.1602 h 18.28 V 60 h -57.66 v 20.1602 h 17.35 V 161.25 h -17.66 z m 13.44,42.969 c 0,2.07 0.39,3.98 1.25,5.781 0.82,1.871 1.91,3.469 3.28,4.84 1.33,1.328 2.97,2.422 4.84,3.281 1.88,0.821 3.91,1.25 6.1,1.25 1.95,0 3.82,-0.429 5.62,-1.25 1.88,-0.859 3.48,-1.953 4.84,-3.281 1.45,-1.371 2.54,-2.969 3.29,-4.84 0.82,-1.801 1.25,-3.711 1.25,-5.781 0,-2.109 -0.43,-4.07 -1.25,-5.938 -0.75,-1.882 -1.84,-3.562 -3.29,-5 -1.36,-1.492 -2.96,-2.621 -4.84,-3.441 -1.8,-0.738 -3.67,-1.09 -5.62,-1.09 -2.19,0 -4.22,0.352 -6.1,1.09 -1.87,0.82 -3.51,1.949 -4.84,3.441 -1.37,1.438 -2.46,3.118 -3.28,5 -0.86,1.868 -1.25,3.829 -1.25,5.938 z" /><path
         id="path50"
         style="fill:#254e7c;fill-opacity:1;fill-rule:nonzero;stroke:none"
         d="m 2350.55,117.969 c 0,-3.438 0.23,-6.641 0.78,-9.528 0.51,-2.82 1.25,-5.55 2.19,-8.132 2.89,-7.809 7.53,-13.7074 13.9,-17.6488 6.33,-3.9883 13.52,-5.9414 21.56,-5.9414 6.33,0 12.5,0.8593 18.44,2.6601 6.02,1.75 12.35,4.5313 18.91,8.2813 l 8.75,-14.8516 c -8.05,-5.5391 -16.06,-9.6484 -24.06,-12.3398 -8.05,-2.5782 -16.37,-3.9102 -25,-3.9102 -8.25,0 -15.86,1.3711 -22.82,4.0625 -6.99,2.8203 -13.04,6.8789 -18.12,12.1875 -5,5.3906 -8.99,12.1133 -11.88,20.1602 -2.81,8.1212 -4.22,17.5432 -4.22,28.2812 0,8.629 1.18,16.801 3.6,24.531 2.5,7.699 6.13,14.418 10.94,20.16 4.76,5.7 10.7,10.231 17.81,13.59 7.07,3.321 15.35,5 24.84,5 9.14,0 16.8,-1.41 22.97,-4.222 6.13,-2.731 11.13,-6.36 15,-10.93 3.83,-4.609 6.76,-9.809 8.75,-15.629 1.95,-5.859 3.36,-11.84 4.22,-17.969 0.31,-2.929 0.51,-5.941 0.62,-9.062 0.2,-3.047 0.32,-5.938 0.32,-8.75 z m 34.06,48.281 c -5,0 -9.45,-0.738 -13.28,-2.191 -3.75,-1.36 -6.99,-3.399 -9.69,-6.09 -2.62,-2.739 -4.76,-6.059 -6.41,-10 -1.56,-3.867 -2.73,-8.239 -3.43,-13.129 h 62.81 c -0.31,4.57 -1.06,8.75 -2.19,12.5 -1.05,3.832 -2.77,7.191 -5.15,10 -2.31,2.82 -5.32,5 -9.07,6.57 -3.67,1.559 -8.2,2.34 -13.59,2.34 z" /><path
         id="path52"
         style="fill:#254e7c;fill-opacity:1;fill-rule:nonzero;stroke:none"
         d="m 2537.89,148.91 c 0,3.199 -0.78,5.969 -2.34,8.281 -1.57,2.258 -3.56,4.137 -5.94,5.618 -2.42,1.453 -5.12,2.5 -8.13,3.132 -2.93,0.7 -5.78,1.09 -8.59,1.09 -3.12,0 -6.01,-0.39 -8.59,-1.09 -2.62,-0.742 -4.85,-1.8 -6.72,-3.132 -1.88,-1.25 -3.4,-2.887 -4.53,-4.84 -1.06,-1.879 -1.57,-3.989 -1.57,-6.25 0,-4.059 1.25,-7.309 3.75,-9.688 2.5,-2.422 6.61,-4.652 12.35,-6.722 l 23.28,-8.118 c 10,-3.363 17.26,-7.929 21.87,-13.75 4.69,-5.742 7.04,-12.66 7.04,-20.7808 0,-5.3204 -1.1,-10.2813 -3.29,-14.8516 -2.1,-4.4883 -5.11,-8.2773 -9.06,-11.3984 -3.98,-3.1289 -8.75,-5.5899 -14.37,-7.3516 -5.55,-1.7578 -11.68,-2.6484 -18.44,-2.6484 -9.49,0 -17.19,1.5195 -23.13,4.5312 -5.93,3.0078 -10.46,7.0274 -13.59,12.0274 h -12.19 v 20.1523 h 24.22 c 0,-3.3516 0.7,-6.2109 2.19,-8.5898 1.44,-2.4219 3.32,-4.3321 5.62,-5.7813 2.39,-1.4805 5.08,-2.5781 8.13,-3.2812 3.01,-0.7383 6.09,-1.0899 9.22,-1.0899 3.01,0 5.94,0.3516 8.75,1.0899 2.81,0.8203 5.31,1.9101 7.5,3.2812 2.19,1.4492 3.9,3.1602 5.15,5.1602 1.25,2.0703 1.88,4.4101 1.88,7.0312 0,3.9375 -1.33,7.2578 -3.91,9.9996 -2.5,2.688 -6.83,5.149 -12.97,7.34 l -23.12,8.75 c -9.49,3.321 -16.52,7.578 -21.09,12.809 -4.61,5.199 -6.88,11.719 -6.88,19.539 0,5.07 0.94,9.84 2.81,14.211 1.96,4.379 4.77,8.129 8.44,11.25 3.63,3.211 8.05,5.711 13.28,7.5 5.2,1.762 11.17,2.66 17.97,2.66 8.63,0 15.86,-1.211 21.72,-3.59 5.94,-2.43 11.25,-6.531 15.94,-12.351 h 11.25 V 148.91 Z" /><path
         id="path54"
         style="fill:#254e7c;fill-opacity:1;fill-rule:nonzero;stroke:none"
         d="m 2641.48,237.66 h 71.88 c 8.01,0 15.35,-1.058 22.03,-3.129 6.64,-2.109 12.42,-5.152 17.34,-9.222 4.89,-3.981 8.64,-8.981 11.25,-15 2.7,-5.93 4.07,-12.809 4.07,-20.618 0,-6.57 -1.37,-12.742 -4.07,-18.441 -2.61,-5.738 -6.36,-10.738 -11.25,-15 -4.8,-4.301 -10.58,-7.66 -17.34,-10.16 -6.68,-2.5 -14.18,-3.75 -22.5,-3.75 h -31.56 V 80.1602 h 17.81 V 60 h -57.66 v 20.1602 h 16.88 V 217.34 h -16.88 z m 39.85,-20.32 v -55.781 h 32.03 c 4.45,0 8.52,0.55 12.19,1.722 3.75,1.25 6.95,3.008 9.68,5.309 2.7,2.39 4.77,5.32 6.25,8.75 1.57,3.519 2.35,7.66 2.35,12.351 0,8.75 -2.66,15.508 -7.97,20.309 -5.31,4.879 -13.83,7.34 -25.47,7.34 z" /><path
         id="path56"
         style="fill:#254e7c;fill-opacity:1;fill-rule:nonzero;stroke:none"
         d="m 2776.17,181.41 h 42.03 v -20.16 h -11.4 l 30,-83.5898 29.22,83.5898 h -7.35 v 20.16 h 38.44 v -20.16 h -10.47 L 2846.95,58.1211 h -21.56 L 2785.86,161.25 h -9.69 z" /><path
         id="path58"
         style="fill:#254e7c;fill-opacity:1;fill-rule:nonzero;stroke:none"
         d="m 2949.61,181.41 h 28.44 v -17.66 h -28.6 l -0.47,-70.1602 c 0,-4.6796 0.51,-8.5507 1.57,-11.5585 1.13,-2.9297 2.89,-4.961 5.31,-6.0899 2.5,-1.1719 5.23,-1.7226 8.28,-1.7226 3.32,0 6.25,0.2304 8.75,0.7812 2.5,0.6211 5.2,1.6406 8.13,3.1211 l 5,-14.6797 c -3.75,-1.9922 -7.74,-3.5195 -11.88,-4.6914 -4.06,-1.1289 -8.91,-1.7187 -14.53,-1.7187 -5.31,0 -9.96,0.6992 -13.91,2.0273 -3.98,1.25 -7.3,3.3633 -10,6.4102 -2.73,3.121 -4.76,7.2304 -6.09,12.3398 -1.25,5.082 -1.88,11.4531 -1.88,19.0703 l 0.32,66.8711 h -19.38 v 17.66 h 19.69 v 29.059 l 21.25,10.152 z" /><path
         id="path60"
         style="fill:#254e7c;fill-opacity:1;fill-rule:nonzero;stroke:none"
         d="m 3061.48,237.66 h 57.66 v -20.32 h -17.81 V 80.1602 h 61.4 c 1.25,0 2.5,0.2304 3.75,0.7812 1.25,0.6172 2.35,1.3984 3.29,2.3399 1.01,0.9375 1.87,2.0273 2.5,3.2773 0.62,1.25 0.93,2.5 0.93,3.75 V 112.66 h 22.35 V 60 h -134.07 v 20.1602 h 16.88 V 217.34 h -16.88 z" /><path
         id="path62"
         style="fill:#254e7c;fill-opacity:1;fill-rule:nonzero;stroke:none"
         d="m 3243.52,181.41 h 28.43 v -17.66 h -28.59 l -0.47,-70.1602 c 0,-4.6796 0.51,-8.5507 1.56,-11.5585 1.14,-2.9297 2.89,-4.961 5.32,-6.0899 2.5,-1.1719 5.23,-1.7226 8.28,-1.7226 3.32,0 6.25,0.2304 8.75,0.7812 2.5,0.6211 5.19,1.6406 8.12,3.1211 l 5,-14.6797 c -3.75,-1.9922 -7.73,-3.5195 -11.87,-4.6914 -4.07,-1.1289 -8.91,-1.7187 -14.53,-1.7187 -5.32,0 -9.97,0.6992 -13.91,2.0273 -3.99,1.25 -7.31,3.3633 -10,6.4102 -2.73,3.121 -4.77,7.2304 -6.09,12.3398 -1.25,5.082 -1.88,11.4531 -1.88,19.0703 l 0.31,66.8711 h -19.37 v 17.66 h 19.69 v 29.059 l 21.25,10.152 z" /><path
         id="path64"
         style="fill:#254e7c;fill-opacity:1;fill-rule:nonzero;stroke:none"
         d="m 3369.45,242.34 h 38.44 V 80.1602 h 17.81 V 60 h -39.68 v 10 c -3.87,-3.9805 -8.4,-7.1094 -13.6,-9.3789 -5.12,-2.1797 -10.94,-3.2813 -17.5,-3.2813 -8.24,0 -15.9,1.4102 -22.97,4.2188 -7.11,2.8906 -13.24,7.0703 -18.43,12.5 -5.24,5.5117 -9.3,12.2695 -12.19,20.3203 -2.93,8.0001 -4.38,17.1801 -4.38,27.5001 0,9.371 1.41,17.891 4.22,25.621 2.81,7.699 6.76,14.262 11.88,19.691 5.19,5.387 11.44,9.61 18.75,12.649 7.26,3.012 15.35,4.539 24.22,4.539 5.82,0 11.13,-0.707 15.93,-2.039 4.89,-1.25 9.57,-3.512 14.07,-6.719 v 46.57 h -16.57 z M 3357.73,76.25 c 6.45,0 11.88,0.9414 16.25,2.8086 4.38,1.9609 8.36,4.8906 12.04,8.75 v 67.9724 c -3.87,3.199 -8.36,5.547 -13.44,7.028 -5.12,1.57 -10.31,2.351 -15.63,2.351 -5.11,0 -9.96,-1.019 -14.53,-2.969 -4.49,-1.882 -8.44,-4.652 -11.87,-8.281 -3.44,-3.68 -6.17,-8.129 -8.13,-13.441 -1.87,-5.309 -2.81,-11.41 -2.81,-18.278 0,-7.5 0.94,-14.14 2.81,-19.851 1.88,-5.7384 4.46,-10.5392 7.81,-14.3712 3.32,-3.8672 7.35,-6.7969 12.04,-8.75 4.68,-1.9883 9.84,-2.9688 15.46,-2.9688 z" /></g></g></svg>